<?xml version="1.0" encoding="utf-8"?>
<!-- Generator: Adobe Illustrator 26.0.1, SVG Export Plug-In . SVG Version: 6.00 Build 0)  -->
<svg version="1.1" id="Layer_1" xmlns="http://www.w3.org/2000/svg" xmlns:xlink="http://www.w3.org/1999/xlink" x="0px" y="0px"
	 viewBox="0 0 379.1 101.4" style="enable-background:new 0 0 379.1 101.4;" xml:space="preserve">
<style type="text/css">
	.st0{fill:#22272E;}
	.st1{fill:#FFFFFF;}
	.st2{font-family:'Yorkside';}
	.st3{font-size:81.2824px;}
	.st4{fill:#191B27;}
	.st5{fill:#6E2E92;}
	.st6{fill:#8951A0;}
</style>
<rect class="st0" width="379.1" height="101.4"/>
<text transform="matrix(1.0007 0 0 1 12.2976 72.1752)"><tspan x="0" y="0" class="st1 st2 st3">Hi! I am</tspan><tspan x="205.3" y="0" class="st4 st2 st3"> </tspan><tspan x="225.2" y="0" class="st5 st2 st3">Jade</tspan><tspan x="337.2" y="0" class="st6 st2 st3"> </tspan></text>
<path d="M336.2-5.5"/>
<g>
	<g>
		<g>
			<g>
				<g>
					<path d="M379,77.9c0.2,0,0.2-0.4,0.2-0.4C378.8,77.5,379,78,379,77.9z"/>
					<polygon points="374.9,78.7 375,78.5 374.4,78.9 					"/>
					<path d="M371.1,78.6c0.3,0.7,1.4-0.1,2,0.2l0.1,0.2l0.3-0.6C372.8,78.4,371.7,78.8,371.1,78.6z"/>
					<path d="M369.2,76.9c0.1,0.3-0.4,0.2,0.5,0.1c0,0-0.1-0.1-0.1-0.1C369.5,77,369.4,77,369.2,76.9z"/>
					<path d="M369.6,77C370,77,369.3,76.7,369.6,77L369.6,77z"/>
					<path d="M367.7,77.1l0.5-0.2c-0.1-0.2-0.6-0.2-0.4-0.3C367.3,76.6,367.4,76.8,367.7,77.1z"/>
					<path d="M367.2,77.6l0.3-0.1C367.4,77.4,367.4,77.4,367.2,77.6z"/>
					<path d="M368.1,77.3l-0.6,0.2c0.1,0.1,0.1,0.3,0.3-0.1C367.7,77.6,367.8,77.4,368.1,77.3z"/>
					<path d="M368.4,77.4c0.3,0.2,0.7,0.3,0.1,0.5C369.5,77.8,369.4,77.3,368.4,77.4z"/>
					<path d="M370.9,79.3l0.4,0.2l0.3-0.2C371.5,79.4,370.9,79.1,370.9,79.3z"/>
					<path d="M364.5,76.6c0,0.2,0.2,0.4,0.2,0.6L365,77C364.8,76.9,364.5,76.8,364.5,76.6z"/>
					<path d="M364.6,77.2l-0.6,0.2C364.6,77.5,364.7,77.4,364.6,77.2z"/>
					<polygon points="367.1,78.4 368,77.8 366.9,78.4 					"/>
					<polygon points="362.2,76.5 362.6,76.2 362,76.7 					"/>
					<path d="M360.8,76.5c0.3-0.3-0.3-0.5-0.1-0.7c-0.4,0-0.8,0.3-1.1,0.5C360,76.2,360.3,76.3,360.8,76.5z"/>
					<path d="M359.1,76.6c0.2-0.1,0.3-0.2,0.5-0.3C359.5,76.4,359.3,76.5,359.1,76.6z"/>
					<path d="M363.1,77.3c0-0.1-0.1-0.3-0.4-0.4l0.2,0.4C362.9,77.3,363,77.3,363.1,77.3z"/>
					<path d="M362.9,77.3L362.9,77.3c-0.3,0-0.4,0-0.5-0.1C362.4,77.3,362.6,77.3,362.9,77.3z"/>
					<path d="M363.1,77.3C363.1,77.3,363.1,77.3,363.1,77.3C363.1,77.4,363.1,77.4,363.1,77.3z"/>
					<path d="M365.6,77.9c-0.3,0.2-1.1,0.5-0.4,0.8C365.4,78.5,365,78.3,365.6,77.9z"/>
					<path d="M363.4,77.9L364,78c0-0.1-0.1-0.3,0.1-0.4L363.4,77.9z"/>
					<polygon points="363.1,78 363.4,77.9 363.2,77.8 					"/>
					<path d="M360.2,77.1c-0.3,0.2-0.6,0.2-0.9,0.2c0.3,0.1,0.7,0.2,1.1,0.2C360.4,77.3,360.5,77.1,360.2,77.1z"/>
					<path d="M361.5,77.2L361.5,77.2C361.4,77.3,361.5,77.3,361.5,77.2z"/>
					<polygon points="356,77.2 356.1,77.2 356.1,77.2 					"/>
					<path d="M360.4,77.5c0.3,0.1,0.4,0,0.6-0.1C360.8,77.4,360.6,77.4,360.4,77.5C360.3,77.5,360.3,77.5,360.4,77.5z"/>
					<path d="M358.2,76.8c0.1,0.1,0.3,0.2,0.5,0.2C358.5,76.9,358.3,76.7,358.2,76.8z"/>
					<path d="M361.3,77.1C361.3,77.1,361.3,77.1,361.3,77.1C361.3,77,361.3,77.1,361.3,77.1z"/>
					<path d="M361.3,77.1c-0.1,0.1-0.2,0.2-0.4,0.2c0.2,0,0.3-0.1,0.4-0.1C361.4,77.2,361.3,77.2,361.3,77.1z"/>
					<path d="M355,79.9c0.1-0.4,0.8-0.7,1.4-0.3c0.6-0.3,0.3-1.6-0.2-2.3c0,0.2,0,0.3-0.6,0.5c0.2,0.2,1.3,0.5,0.8,0.9
						c-0.8,0.2-0.7-0.2-1-0.4c0.3,0.5-1,0.7-0.9,1.4l0.7-0.2C355,79.6,354.8,79.8,355,79.9z"/>
					<path d="M357.2,77.3l0.3,0c-0.3-0.1-0.5-0.2-0.8-0.6c-0.4,0.2-0.5,0.3-0.5,0.5L357.2,77.3L357.2,77.3z"/>
					<path d="M358.6,77.3c-0.2,0.4-0.8,0.6-0.5,1.1c0.7,0,0.5-0.3,1-0.5C357.9,77.9,359.5,77.6,358.6,77.3c0.2,0,0.5,0,0.7,0
						c-0.2-0.1-0.4-0.1-0.6-0.2l0,0l0,0l0,0c0,0.1,0.1,0.1,0,0.1c0,0,0,0,0,0C358.7,77.2,358.6,77.3,358.6,77.3
						c-0.3-0.1-0.1-0.1,0.1-0.2c0,0,0,0,0-0.1l0,0l-1.2,0.2C357.7,77.3,358.1,77.3,358.6,77.3z"/>
					<path d="M364.5,79.7c0,0,0-0.1,0-0.1C364.4,79.6,364.4,79.7,364.5,79.7z"/>
					<path d="M364,79.4c0.1-0.1,0.2-0.2,0.4-0.2c0.2,0.1,0,0.2,0,0.3c0.2-0.1,0.6-0.3,0.1-0.5l-0.1,0.1c-0.5-0.2-1.1-0.7-1-0.8
						C363.6,78.7,363.7,79,364,79.4z"/>
					<path d="M361.3,78.5l-1,0.2l0.5,0.4l0-0.2C361.3,78.9,361.2,78.6,361.3,78.5z"/>
					<polygon points="355.9,76.9 356.1,76.5 355.5,77.1 					"/>
					<polygon points="354.6,77 354.7,76.6 354.3,76.8 					"/>
					<path d="M282,80.4l-0.3,0.1C281.8,80.4,281.9,80.4,282,80.4z"/>
					<path d="M284.1,80.4l0.1-0.2C284,80.3,284,80.4,284.1,80.4z"/>
					<path d="M323,76.2c-0.4-0.4-0.9-1-0.8-0.5l0.1,0.4C322.6,76,322.8,76.1,323,76.2z"/>
					<path d="M301.3,78.3l0.1,0.1c0.1-0.1,0.2-0.3,0.3-0.4C301.6,78.1,301.5,78.2,301.3,78.3z"/>
					<path d="M301,80.1l-0.6-0.3C300.6,79.9,300.8,80,301,80.1z"/>
					<path d="M270.5,80.7l-0.3,0.4C270.7,81.2,270.4,81,270.5,80.7z"/>
					<path d="M341.4,76.7c-0.4-0.2-0.7-0.3-0.9-0.3C341,76.7,341.3,77.1,341.4,76.7z"/>
					<path d="M282.8,75.8c-0.2,0.1-0.3,0.2-0.3,0.3C282.8,76,282.9,75.9,282.8,75.8z"/>
					<path d="M339.5,76.4c0.1,0,0.1,0.1,0.2,0.1c0.3-0.1,0.5-0.1,0.9-0.1C340.2,76.2,339.9,76.1,339.5,76.4z"/>
					<path d="M228.8,80.4C228.8,80.4,228.7,80.4,228.8,80.4C228.7,80.4,228.7,80.4,228.8,80.4z"/>
					<path d="M216.6,76.1c0.1,0,0.3,0,0.5,0C217,76,216.9,76,216.6,76.1z"/>
					<path d="M349.5,76.6C349.7,76.6,349.5,76.6,349.5,76.6L349.5,76.6z"/>
					<path d="M350.7,78.4c-0.1,0-0.1,0.1-0.1,0.2C350.6,78.5,350.7,78.4,350.7,78.4z"/>
					<path d="M336.7,79L336.7,79C336.8,79.1,336.7,79.1,336.7,79z"/>
					<path d="M349.9,76.8c-0.1-0.1-0.2-0.1-0.3-0.1C349.6,76.7,349.7,76.8,349.9,76.8z"/>
					<path d="M349.8,76.6c0.1,0,0.2,0,0.2,0C350.1,76.6,350.1,76.5,349.8,76.6z"/>
					<path d="M349.1,76.6c0.2,0,0.3,0,0.4,0.1c-0.1,0-0.1-0.1-0.1-0.1C349.4,76.6,349.3,76.6,349.1,76.6z"/>
					<path d="M251.1,79.2C251.1,79.1,251.1,79.1,251.1,79.2C250.8,79.3,250.9,79.3,251.1,79.2z"/>
					<path d="M315.8,80.5C315.8,80.5,315.9,80.5,315.8,80.5C315.9,80.5,315.8,80.5,315.8,80.5L315.8,80.5z"/>
					<path d="M314.8,80.8c0.4-0.5,0.7-0.5,1-0.3l-0.3-1.3L314.8,80.8z"/>
					<path d="M276.9,80.4l0.7,0.4c-0.8,0.6-1.4,0.4-0.8,1c0.1-1.4,2.7-0.1,2.8-1.5l0.5,0.3c-0.1,0-0.2,0.1-0.3,0.1
						c0.9,0.7,0.7-1,1.8-0.8c0.4,0.1,0.7,0.3,0.4,0.5l0.9-0.3c0.3,0,0.2,0.3-0.1,0.2l1.3-0.1l0,0c0.2-0.2,0.6-0.5,0.8-0.7
						c0.3,0.2-0.2,0.1-0.1,0.3l0.7-0.3c0.3,0.4-0.3,0.7-0.8,0.6c0.7,1.4,0.6-0.3,2.1,0.5l-0.7,0.2c0.4,0.8,1,0.5,1.8,1
						c-0.2-0.3-1.6-1.2-0.8-1.6c0.2,0.1,0.5,0.2,1-0.1c0,0.5,0.4,0.4,1,0.3l0,0.6c0.6-0.2,0.5-0.5,0.9-0.8c0.6,0.1,0.8,0.6,0.9,1
						c1,0.1-0.7-0.8,0.5-0.9c0.9,0.3,1.5,0,2.5-0.4c0.6,0.2-0.1,0.4,0.1,0.6l0.5-0.5c0.1,0,0.1,0.2,0.1,0.2c0.4-0.2,0-0.6,0.8-0.8
						c0.2-0.7,1.4,1,2.3,0.3c0.2,0.2-0.1,0.4,0,0.6c1.2-0.5,1-0.4,2-1.1l0.8,0.4c-0.6-0.5,0.2-1,0.9-1.5c-0.2-0.2-0.4-0.4-0.5-0.5
						l1.1-0.3c0.1,0.1,0,0.3-0.2,0.6c0.1-0.1,0.1-0.1,0.2-0.2c0.4,0.2,0.2,0.6-0.1,1c-0.1-0.1-0.3-0.3-0.4-0.4
						c-0.3,0.4-0.5,0.8-0.5,1.2c0.1-0.1,0.2-0.1,0.4-0.2c-0.1,0.1-0.1,0.2-0.1,0.3c0,0.1,0.2-0.1,0.3-0.2l0.2,0.7l0.1-0.3l1.4,0.5
						c1-0.7,1.9-1.7,3.6-2c-0.4,0.5-0.1,0.9-0.1,1.5c-0.4-0.7-1.3,0.3-2.1,0.1c0.4,0.1,0.3,0.4,0.2,0.5l1.5-0.6
						c0,0.5,0.3,0.4,0.7,0.6c-0.3-1,1.1-0.6,1.8-0.9c0,0.3-0.1,0.7-0.9,0.6c0.8,0.8,1.1-1.2,1.9-0.5c-0.2,0-0.3,0-0.4,0.1
						c0.4-0.3,1.5,0,1.2,0.3l-0.2,0c1.2,0.1,3.7,0.1,3.9-0.8c0,0.1-0.2,1-0.3,1.2l2.2-2.8c-0.2,0.7,0.5,2.5-0.5,2.9
						c0.3,0.1,0.6,0.2,1.3,0c-0.2-0.1-0.5-1.1-0.2-1.1c0.7,0.8,0.5,0.4,1.4,1.2c-0.3-0.2,0.1-1.3,0.5-1.3c-0.1,0.2,0,1.1-0.2,1.2
						l1.2-1.1c-0.3,0.2-0.1,1,0.2,1.3c-0.1-0.2,1,0,1.3-0.1l-0.5-0.3c1.3,0.2,1.3-1.6,2.6-1.5c-0.2,0.2-0.4,1.4,0.2,1.6
						c0.3-0.6,1.4-2.7,2.6-3.2l0.2,0.3l0.9-0.4c-0.6,0.9-2.2,2.6-3,3.3c0.5,0.3,0.1,0.4,0.9,0.4c0.3,0.3-0.4,0.5-0.6,0.5l1.7,0.2
						c-0.1-0.7,1.3-0.6,1.3-1.2l-1.9,0.7c-0.1-0.7,1.1-1.9,2.3-1.7c0.3,0.3-0.3,1.2-0.2,1.4c0.2-0.2,1.2-0.4,1.3-0.2l-0.5,0.3
						c0.7,0.3,1.1-0.9,1.9-0.2c0.3,0,0.8,0.9,0.9,0.5c-0.4-0.8-0.5-3.2-0.1-3.7c0.1,0.1,1.5,0.8,1.8,1.2c0.4,0.6-0.7,1.4-0.3,1.9
						c0-0.2,0.3-0.4,0.4-0.5c0.3,0.2-0.1,0.6,0.5,0.5c0.1-0.7,1.3,0.1,0.3-0.6c0.6-0.2,0.7,0.2,1.4,0.1c-0.2-0.4,0.7-1.5,1.3-1.7
						c0,0.2,0.1,0.4,0.2,0.5c1.3,0.1,2,0.4,3.1,0.5c0.1,0.2,0.7,0.4,0.4,0.7c0.2-0.1,0.3-0.3,0.7-0.3c0.7,0.6-0.8,0.1-0.3,0.8
						c0.1-0.4,1-0.5,1.5-0.8c-0.1-0.6-1.2-0.2-1.7,0.1c0-0.8,1-1.7,2.2-2.1c1-0.2,0.4,0.6,0.6,0.4c1.9,0.2,1.6-1.4,3.2-0.8
						c0.6,0.6,0,1.1,0.1,1.5c-0.8,0.2-1.2-0.4-1.8-0.4l0.7,0.3c-0.3,0.2-0.8,0.3-1.1,0.1c0.5,0.5,3.1,0.2,4.6,0.7
						c0.3-0.2,0.7-0.3,0.5-0.6l-0.5,0.1c-0.4-0.4,0.9-0.6,0.3-0.8c0.6-0.3,1.3-0.7,2.2-0.5l0.1,0.6c0-0.2-0.5-0.4-0.8-0.2
						c0.4-0.3,1.3,0.9,1.7,0.1l-0.6-0.4c0.6-0.3,1.4-0.9,2.2-0.7c-0.3-0.6-0.2,0.1-0.7-0.7c0.4,0.9-1.9-0.1-1.2,0.9
						c-0.5-0.8-0.9-0.4-1.7-1.1c0,0.2,0.2,0.4-0.4,0.3c0,0.1-0.1,0.1-0.1,0.2c0,0,0,0,0,0l0,0c0,0,0,0,0,0c0.1,0.1,0.3,0.2,0.3,0.3
						c-0.3,0.5-1.3,0.4-1.7,0.6c-0.4-0.1,0.2-0.2,0-0.4l-0.5,0.3c0-0.5-1-0.8-0.1-1l-0.8,0c-0.5-0.3-1.1-0.4-1.5-0.2
						c-0.4-0.1-1,0.5-0.6,0.1l-1.3,0.2l0-0.1c-1.2-0.1-2.6,0.7-4-0.2c-0.4,0.1-0.9,0.2-1.6,0.1l-0.1-0.4c-0.5,0.1-1.6-0.4-1.8,0
						c-0.6-1.1-2.6-0.3-3.5-0.5l0,0.5c-0.7,0-1.3,0.1-2.1,0.3l0,0.4c-0.7,0.4-1.8-0.4-2.9-0.3c0.1-0.2,0.4-0.1,0.6,0
						c-1.3-1-2.8,0.7-4-0.1c-0.3,0.2-0.5,0.1-0.7,0c0,0,0.1,0,0.1,0c0,0-0.1,0-0.1,0c-0.1-0.1-0.3-0.2-0.4-0.2
						c0.1,0.1,0.2,0.2,0.3,0.2c-0.2,0-0.6,0.1-0.9,0.2l-0.1-0.5c0,0,0,0-0.1,0c-0.3-0.2-0.3,0.2-0.1,0.6c-0.2,0.1-0.3,0.2-0.5,0.3
						c-0.3-0.8-0.9,0.2-1.3-0.6c-0.2,0.4-1.7,0.3-1.9,1.1c0-0.1-0.1-0.2,0.1-0.2c-0.4-0.1-0.8-0.2-1.1,0l-0.1-0.6l-0.8,0.8
						c-0.5-0.4-0.7-0.6-0.2-1.1c-1.2,0.7-1,0.3-2,1l0.1-0.4c-0.4,0-1,0.5-1.2,0.2c-0.8-0.8-4.1-0.2-6.2-0.9c0.4,1.2-1-0.5-1.1,0.4
						c-0.1-0.3-0.4-0.4-0.1-0.7c-1.1,0.3-1.6-0.5-2.4,0.3c-0.1-0.3,0.2-0.4,0.1-0.6c-0.1,0.1-0.3,0.2-0.5,0.1
						c-0.1-0.2,0.2-0.2,0.3-0.3c-1.1,0-1.2,0.9-1.3,1.7c-0.6-0.4-0.8-0.3-1.2,0.2c-0.2-0.3-0.5-0.5,0.2-0.6c-0.4,0-2.3-0.4-2.4,0.2
						c-0.1-0.2-0.5-0.1-0.6,0c-0.9-0.1-0.9-0.1-1.8-0.1l0.2,0.1c-0.3,0.8-0.7,0.2-1.4,0.2l0-0.1c-1.6-0.6-0.7,0.3-2.2-0.4l0.1,0.5
						c-0.2,1-1.4-0.6-2.3-0.2l0.3,0.3c-0.5,0.3-1.4-1.4-1.8-1.6c-0.1-0.1,0.2-0.1,0.3-0.2c-1.3-0.6-0.2,0.6-1.1,0.8
						c-0.2-0.3,0.2-0.9-0.4-0.9c-0.3-0.3-1.9,1.1-2.8,0.4c0.2,0.3,0.4,0.5-0.1,0.7c-0.7,0.1-1.8-1-2.5-0.2c-0.1-0.1-0.1-0.1-0.1-0.2
						c-0.5,0.2-1.7,0.3-2,0.8c-0.5-1.7-3.3,0.8-3.2-0.8l-1.6,0.1l0-0.2c-1-0.1-1.4,0.3-1.8,0.6c-0.2-0.1-0.1-0.2,0-0.3
						c-1.5-0.3-1.6-0.3-2.9,0.5l-0.1-0.5c-0.3,0.3-2.2-0.8-3.6-0.2c0-0.1,0-0.2,0.2-0.2c-1.7,0.6-4-1.4-4.6,0.4l-1.1,0.4
						c1.4,0.1-0.2,0.8,0.4,1.1c-0.6,0.1-1.4-0.5-0.8-0.6l0.1,0.1c0.3-0.9-1.8-0.3-1.7-1c-2.8,0-5.5-0.5-8.1-0.5l0.3,0.7l-0.9,0
						c-0.2-0.2-0.3-0.6,0.3-0.5c-0.3-0.4-1.1,0.3-1.1,0.5c-1.3-0.3,0.5-0.9,0.1-0.9l-0.5,0.1l0.1,0.1c-0.4,0.3-0.5,0.6-1.2,0.6
						c-0.5-0.1-0.3-0.5-0.4-0.5c0-0.1-0.1-0.1-0.3,0l-1.1-0.1l0.5,0.6c-0.5,0.3-1.1,0-0.5,0.6c-0.8-1-4.3-0.4-4.7-0.7
						c-0.7,0.4-1.4,0.4-2.3,0.4c0.2,0.1,0.3,0.8-0.4,0.7c0.3-1.3-1.4-0.6-2-1.5c0.5,0.6-2.1,0.2-1.3,1.1c-0.6-0.1,0-0.5-0.5-0.8
						c-1.5,0.5-3.3-0.3-5.1-0.1c0,0.2,0.3,0.4-0.1,0.7l-1-0.9c-0.4,0.1-0.3,1-1,0.4c0.1,0.1,0.2,0.4,0,0.4c-3.6-0.8-7.4,0.8-11-0.8
						c0.5,0.3,0.2,0.4-0.2,0.4c0.2,0.1,0,0.4,0,0.7l-1.5-0.6c-0.3,0.7-1.6,0.1-1.8,0.7l0.5-0.1c-0.6,0.8,0.9,1.7,0.8,2.6
						c0.7-0.9,1.9,1.2,3.1,0c0.3,0.2-0.2,0.3-0.1,0.5c0.3-0.4,0.7-0.5,1.3-0.3l-0.1,0.1c1.9-0.1,2.7,0.3,4.8,0.5l-0.2-0.5
						c0.5,0.1,0.6,0.2,0.8,0.3c0.5-0.7-1.3,0-0.8-0.8c0.6,1,3.2,0,3.6,1.1c0.7,0-0.2-0.5,0.5-0.5l0.2,0.3l0.2-0.4
						c0.5,0.1,0.7,0.4,0.7,0.7c-0.1,0-0.3,0.1-0.4,0.1c0.6,0.3,1.7-0.1,1.9,0l-0.7-0.2c1.9-0.3,4.3,0.1,6.1-0.5l-0.1-0.2
						c1.4-0.4,1.1,0.2,2.7,0l-0.1,0.1c0.3-0.2,0.7-0.3,1.1-0.3c-0.4,0.3,0.7,0.5,0.2,0.8c1.5-0.4,0.8-0.4,1.8-1.2l0.2,0.4
						c0.3-0.3,0.4-0.5,1.1-0.6c-0.6,0.3,0.5,0.6-0.2,1c1.6,0.8,2.4-0.8,3.2,0.4c0.7-1-1.4-0.6-1-0.8c-0.4-0.3,0.6-0.8,1.1-0.7
						c0.5,0,0.9,1.3,2.2,1.3c-0.1,0-0.1,0.1-0.3,0.1c0.5,0.3,1-0.4,1.6,0.1c0.3-0.6,0.8,0,0.9-0.8l-1.2,0.2c0.7-0.2,1.3-1.1,2.4-0.7
						c-0.1,0.2-0.4,0.4-0.6,0.5c0.3,0.2,0.6-0.2,1,0.1c-0.1,0.8-1.5,0.2-2.2,0.8c0.4,0.3,1.4-0.6,1,0.3c0.5-1.1,1.3,0.1,2.2-0.7
						l-0.1,0.5c0.1-0.1,0.4-0.3,0.7-0.3l-0.5,0.6c0.7-0.5,1.4,0.5,2.1,0.2c-1.4,0-0.3-0.6-0.9-0.9c1.8-0.6,1,1.2,3,1
						c-0.3,0.1-1-0.3-0.6-0.5c0.4,0.1,0.9,0.3,1.1,0.5c1.3-0.1-0.2-0.5,0.4-0.8c0.4,0.6,0.6-0.2,1.2-0.4l0,0.5
						c1.5,0.3,0.4-1,1.7-0.6l-0.6,0.7l0.7-0.2l-0.1,0.5c0.8-0.4,1-0.3,1.8-0.1c-0.2-0.3,0.1-0.9,0.8-0.9c0.5,0.3-0.3,0.5,0.7,0.4
						c-0.2,0.3-0.4,0.7-0.9,0.2c0,0.2-0.2,0.3-0.3,0.5c0.5,0.3,1.2,0.1,1.6,0.1c-0.1,0-0.3,0-0.4-0.1l1.4-0.7c0.2,0.2,0,0.3-0.1,0.5
						c0.3-0.1,0.5-0.3,0.9-0.3c-0.1,0.4-0.1,0.8-0.7,1l1.3-0.4c0.1,0.2,0.7,0.5,0.5,0.6c0.7,0.2,1.8-0.7,2.7-0.4
						c0.1-0.1,0.2-0.1,0.4-0.2c0.9,0.1,1.7,0.6,2.8,0l0.6,0.7c0.8-0.2-0.8-0.9,0.6-1.1c1-0.2,0.4,0.6,0.7,0.8
						c0.5-0.3,1.3-1.1,2.2-0.5C277.4,80.5,277.2,80.4,276.9,80.4z M287.2,80.2c-0.2,0.1-0.6,0.4-0.7,0.1
						C286.7,79.8,286.9,80.1,287.2,80.2z M302.8,79.3c-0.2,0.2-0.4,0.1-0.6-0.1C302.4,79.1,302.6,79.2,302.8,79.3z M346.5,76.9
						C346.4,76.9,346.4,76.9,346.5,76.9C346,76.7,346.2,76.8,346.5,76.9z M347.4,77.1c0.1-0.1,0.1-0.1,0.1-0.2
						c-0.1,0.1-0.3,0.1-0.5,0.1C347,77.2,347.1,77.2,347.4,77.1z M248.2,75.9l0.2,0.1C248,76.2,248.1,76,248.2,75.9z"/>
					<path d="M301.1,79.9c-0.1-0.1-0.1-0.2-0.1-0.3C300.9,79.7,300.9,79.8,301.1,79.9z"/>
					<path d="M270.5,80.7L270.5,80.7C270.5,80.7,270.5,80.7,270.5,80.7L270.5,80.7z"/>
					<path d="M333,80.9c-0.2-0.1-0.3-0.2-0.4-0.3C332.6,80.7,332.7,80.8,333,80.9z"/>
					<path d="M352.3,76.5l-0.6,0.1c0.3,0,0.4,0.1,0.5,0.2C352.2,76.6,352.1,76.5,352.3,76.5z"/>
					<path d="M357.3,79.6c0.1-0.1,0.2,0,0.3-0.1l0-0.2C357.2,79.3,357,79.5,357.3,79.6z"/>
					<path d="M352.8,78.1c0,0.4,0.4,0.3,0.8,0.2c0,0,0,0-0.1,0C353.7,77.8,353.2,77.9,352.8,78.1z"/>
					<path d="M353.7,78.3c0.1,0,0.3,0,0.4,0C354.2,78.1,353.9,78.3,353.7,78.3z"/>
					<path d="M348.6,76.9c0.2,0.1,0.1-0.5,0.2-0.3C349,76.1,347.5,77.2,348.6,76.9z"/>
					<polygon points="353.1,79.4 353,78.9 352.7,79.3 					"/>
					<path d="M349.8,79l0.7,0.2c0-0.1,0.1-0.1,0.2-0.2C350.3,78.9,349.8,78.8,349.8,79z"/>
					<path d="M350.7,79c0.2,0,0.4,0,0.5-0.1C351.1,78.9,350.8,78.9,350.7,79z"/>
					<polygon points="352.2,79.6 352,79.5 351.5,79.4 					"/>
					<path d="M342.7,78.7l-0.7,0.1c-0.1,0.2,0.1,0.3,0.4,0.2C342.6,78.9,342.8,78.8,342.7,78.7z"/>
					<path d="M344.9,80.1c-0.2-0.1-0.2-0.2-0.3-0.4l0,0.6L344.9,80.1z"/>
					<path d="M342.8,80.2c-0.1,0.2-1.1,0.5-0.1,0.5C342.7,80.5,343.4,80.4,342.8,80.2z"/>
					<polygon points="331.9,79.1 332.1,79.1 332.1,78.1 					"/>
					<path d="M322.3,81.3c0.8,0.3,0.2-0.6,1-0.3c0.2-0.2-0.6-0.3-0.4-0.5C322.3,80.8,322,80.7,322.3,81.3z"/>
					<path d="M322.8,80.6c0.1,0,0.2-0.1,0.3-0.1C322.9,80.5,322.9,80.5,322.8,80.6z"/>
					<polygon points="214.6,75.6 214,75.4 214.4,75.7 					"/>
					<path d="M213.5,76.3l-0.1-0.6l-0.3,0.6C213.2,76.2,213.4,76.2,213.5,76.3z"/>
					<path d="M288.7,81.6l0-0.2c-0.1-0.2-0.2-0.2-0.5-0.2L288.7,81.6z"/>
					<polygon points="281.3,81 281.4,81 281.2,80.4 					"/>
					<path d="M275,81.7c0.3,0,0.6-0.1,0.8-0.1C275.3,81.7,274.9,81,275,81.7z"/>
				</g>
			</g>
		</g>
	</g>
</g>
<g>
	<g>
		<g>
			<g>
				<g>
					<path d="M344.4,90.5c0.1,0,0.1-0.4,0.1-0.5C344.3,90.2,344.4,90.6,344.4,90.5z"/>
					<polygon points="342.1,91.4 342.2,91.2 341.8,91.7 					"/>
					<path d="M340,91.4c0.2,0.7,0.8-0.1,1.1,0.2l0.1,0.2l0.2-0.6C340.9,91.2,340.3,91.6,340,91.4z"/>
					<path d="M338.9,89.8c0.1,0.3-0.2,0.2,0.3,0.1c0,0,0,0,0-0.1C339.1,89.8,339,89.8,338.9,89.8z"/>
					<path d="M339.2,89.8C339.4,89.8,339,89.6,339.2,89.8L339.2,89.8z"/>
					<path d="M338.1,89.9l0.3-0.2c-0.1-0.2-0.3-0.2-0.2-0.3C337.9,89.5,338,89.7,338.1,89.9z"/>
					<path d="M337.8,90.5l0.2-0.1C338,90.3,337.9,90.3,337.8,90.5z"/>
					<path d="M338.3,90.1l-0.3,0.2c0,0.1,0,0.3,0.1-0.1C338.1,90.5,338.2,90.3,338.3,90.1z"/>
					<path d="M338.5,90.3c0.2,0.2,0.4,0.3,0.1,0.5C339.1,90.7,339.1,90.2,338.5,90.3z"/>
					<path d="M339.9,92.1l0.2,0.2l0.2-0.2C340.2,92.2,339.9,91.9,339.9,92.1z"/>
					<path d="M336.3,89.5c0,0.2,0.1,0.4,0.1,0.6l0.2-0.2C336.6,89.9,336.3,89.7,336.3,89.5z"/>
					<path d="M336.4,90.1l-0.3,0.3C336.4,90.4,336.5,90.3,336.4,90.1z"/>
					<polygon points="337.8,91.2 338.3,90.7 337.7,91.2 					"/>
					<polygon points="335.1,89.5 335.3,89.1 335,89.6 					"/>
					<path d="M334.3,89.5c0.1-0.3-0.2-0.5,0-0.7c-0.2,0-0.4,0.3-0.6,0.5C333.9,89.2,334.1,89.3,334.3,89.5z"/>
					<path d="M333.4,89.7c0.1-0.1,0.2-0.2,0.3-0.3C333.6,89.4,333.5,89.5,333.4,89.7z"/>
					<path d="M335.6,90.3c0-0.1-0.1-0.3-0.2-0.4l0.1,0.4C335.5,90.3,335.5,90.3,335.6,90.3z"/>
					<path d="M335.4,90.3L335.4,90.3c-0.1,0-0.2,0-0.3,0C335.2,90.3,335.3,90.3,335.4,90.3z"/>
					<path d="M335.6,90.3C335.6,90.3,335.6,90.3,335.6,90.3C335.6,90.3,335.6,90.3,335.6,90.3z"/>
					<path d="M336.9,90.8c-0.2,0.2-0.6,0.5-0.2,0.9C336.9,91.4,336.6,91.2,336.9,90.8z"/>
					<path d="M335.7,90.8l0.3,0.1c0-0.1-0.1-0.3,0-0.4L335.7,90.8z"/>
					<polygon points="335.6,91 335.7,90.8 335.6,90.8 					"/>
					<path d="M334,90.1c-0.2,0.2-0.3,0.2-0.5,0.2c0.2,0.1,0.4,0.1,0.6,0.1C334.1,90.3,334.2,90.1,334,90.1z"/>
					<path d="M334.7,90.2C334.7,90.2,334.7,90.2,334.7,90.2C334.7,90.3,334.7,90.3,334.7,90.2z"/>
					<path d="M331.7,90.3C331.7,90.3,331.7,90.3,331.7,90.3C331.7,90.3,331.7,90.3,331.7,90.3L331.7,90.3z"/>
					<path d="M334.1,90.5c0.1,0.1,0.2,0,0.3-0.1C334.3,90.4,334.2,90.5,334.1,90.5C334,90.5,334,90.6,334.1,90.5z"/>
					<path d="M332.9,89.9c0.1,0.1,0.2,0.2,0.2,0.2C333.1,90,332.9,89.8,332.9,89.9z"/>
					<path d="M334.6,90.1C334.6,90.1,334.6,90.1,334.6,90.1C334.6,90,334.6,90.1,334.6,90.1z"/>
					<path d="M334.6,90.1c-0.1,0.1-0.1,0.2-0.2,0.3c0.1,0,0.2-0.1,0.2-0.1C334.6,90.2,334.6,90.2,334.6,90.1z"/>
					<path d="M331.1,93c0-0.4,0.4-0.8,0.8-0.3c0.3-0.3,0.2-1.6-0.1-2.3c0,0.2,0,0.3-0.4,0.6c0.1,0.2,0.7,0.5,0.4,0.9
						c-0.5,0.2-0.4-0.1-0.6-0.4c0.2,0.5-0.6,0.7-0.5,1.4l0.4-0.2C331.1,92.7,331,92.9,331.1,93z"/>
					<path d="M332.3,90.4l0.1,0c-0.2-0.1-0.3-0.2-0.5-0.5c-0.2,0.2-0.3,0.3-0.3,0.5L332.3,90.4L332.3,90.4z"/>
					<path d="M333.1,90.4c-0.1,0.4-0.5,0.6-0.3,1.1c0.4,0,0.3-0.4,0.5-0.5C332.7,91,333.6,90.7,333.1,90.4c0.1,0,0.3,0,0.4-0.1
						c-0.1-0.1-0.2-0.1-0.3-0.2c0,0,0,0,0,0l0,0c0,0,0,0,0,0c0,0.1,0,0.1,0,0.1c0,0,0,0,0,0C333.1,90.3,333.1,90.3,333.1,90.4
						c-0.2-0.1,0-0.1,0-0.2c0,0,0,0,0-0.1c0,0,0,0,0,0l-0.7,0.2C332.6,90.4,332.8,90.4,333.1,90.4z"/>
					<path d="M336.3,92.6c0,0,0-0.1,0-0.1C336.3,92.6,336.3,92.6,336.3,92.6z"/>
					<path d="M336.1,92.3c0-0.1,0.1-0.2,0.2-0.2c0.1,0.1,0,0.2,0,0.3c0.1-0.1,0.3-0.3,0-0.5l0,0.1c-0.3-0.2-0.6-0.7-0.5-0.8
						C335.9,91.7,335.9,92,336.1,92.3z"/>
					<path d="M334.6,91.5l-0.6,0.2l0.3,0.4l0-0.2C334.6,91.9,334.5,91.6,334.6,91.5z"/>
					<polygon points="331.6,90 331.7,89.6 331.4,90.2 					"/>
					<polygon points="330.9,90.1 330.9,89.7 330.8,89.9 					"/>
					<path d="M290.7,94l-0.2,0.1C290.6,94,290.7,94,290.7,94z"/>
					<path d="M291.8,94l0-0.2C291.8,93.9,291.8,94,291.8,94z"/>
					<path d="M313.5,89.7c-0.2-0.4-0.5-1-0.5-0.5l0.1,0.4C313.2,89.5,313.4,89.6,313.5,89.7z"/>
					<path d="M301.4,92c0,0,0,0.1,0.1,0.1c0.1-0.1,0.1-0.3,0.2-0.4C301.6,91.8,301.5,91.9,301.4,92z"/>
					<path d="M301.2,93.8l-0.3-0.3C301,93.6,301.1,93.7,301.2,93.8z"/>
					<path d="M284.3,94.3l-0.2,0.4C284.4,94.7,284.3,94.5,284.3,94.3z"/>
					<path d="M323.6,90.1c-0.2-0.2-0.4-0.2-0.5-0.3C323.4,90,323.6,90.4,323.6,90.1z"/>
					<path d="M291.3,89.4c-0.1,0.1-0.1,0.2-0.1,0.3C291.2,89.6,291.3,89.5,291.3,89.4z"/>
					<path d="M322.5,89.8c0,0,0.1,0.1,0.1,0.1c0.1-0.1,0.3-0.1,0.5-0.1C323,89.6,322.8,89.5,322.5,89.8z"/>
					<path d="M261.3,93.3C261.3,93.3,261.3,93.3,261.3,93.3C261.2,93.3,261.3,93.3,261.3,93.3z"/>
					<path d="M254.7,88.8c0.1,0,0.2,0,0.3,0C254.9,88.7,254.8,88.7,254.7,88.8z"/>
					<path d="M328.1,89.8C328.2,89.8,328.1,89.8,328.1,89.8L328.1,89.8z"/>
					<path d="M328.7,91.6c0,0-0.1,0.1-0.1,0.2C328.7,91.7,328.7,91.6,328.7,91.6z"/>
					<path d="M321,92.4C321,92.4,321,92.4,321,92.4C321,92.5,321,92.5,321,92.4z"/>
					<path d="M328.3,90c-0.1-0.1-0.1-0.1-0.2-0.1C328.1,89.9,328.2,90,328.3,90z"/>
					<path d="M328.3,89.8c0.1,0,0.1,0,0.1,0C328.4,89.8,328.4,89.7,328.3,89.8z"/>
					<path d="M327.8,89.8c0.1,0,0.2,0,0.2,0.1c0,0,0-0.1,0-0.1C328,89.8,327.9,89.8,327.8,89.8z"/>
					<path d="M273.7,92.5C273.7,92.5,273.6,92.5,273.7,92.5C273.5,92.6,273.5,92.6,273.7,92.5z"/>
					<path d="M309.4,94.1C309.4,94.1,309.4,94.1,309.4,94.1C309.4,94.1,309.4,94.1,309.4,94.1L309.4,94.1z"/>
					<path d="M308.9,94.4c0.2-0.5,0.4-0.5,0.5-0.3l-0.1-1.3L308.9,94.4z"/>
					<path d="M287.9,94l0.4,0.4c-0.5,0.6-0.8,0.4-0.5,1c0.1-1.4,1.5-0.1,1.6-1.5l0.2,0.3c-0.1,0-0.1,0.1-0.2,0c0.5,0.7,0.4-1,1-0.8
						c0.2,0.1,0.4,0.3,0.2,0.5l0.5-0.3c0.1,0,0.1,0.3,0,0.2l0.7-0.1l0,0c0.1-0.2,0.4-0.5,0.5-0.7c0.2,0.2-0.1,0.1-0.1,0.3l0.4-0.3
						c0.2,0.4-0.2,0.7-0.5,0.6c0.4,1.4,0.4-0.3,1.2,0.5l-0.4,0.2c0.2,0.8,0.5,0.5,1,1c-0.1-0.3-0.8-1.2-0.4-1.6
						c0.1,0.1,0.3,0.2,0.5-0.1c0,0.5,0.2,0.4,0.5,0.4l0,0.6c0.3-0.2,0.3-0.5,0.5-0.8c0.4,0.1,0.4,0.6,0.5,1c0.6,0.1-0.4-0.8,0.3-0.9
						c0.5,0.3,0.8,0,1.4-0.4c0.3,0.2-0.1,0.4,0,0.6l0.3-0.5c0.1,0,0,0.2,0,0.2c0.3-0.2,0-0.6,0.4-0.8c0.1-0.7,0.8,1,1.3,0.3
						c0.1,0.2-0.1,0.4,0,0.6c0.7-0.5,0.6-0.4,1.1-1.1l0.5,0.4c-0.3-0.5,0.1-1,0.5-1.5c-0.1-0.2-0.2-0.4-0.3-0.5l0.6-0.3
						c0.1,0.1,0,0.3-0.1,0.6c0-0.1,0.1-0.1,0.1-0.2c0.2,0.2,0.1,0.6-0.1,1c-0.1-0.1-0.1-0.3-0.2-0.4c-0.2,0.4-0.3,0.8-0.3,1.2
						c0-0.1,0.1-0.1,0.2-0.2c0,0.1-0.1,0.2-0.1,0.3c0,0.1,0.1-0.1,0.2-0.2l0.1,0.7l0-0.3l0.8,0.5c0.6-0.7,1.1-1.7,2-2
						c-0.2,0.5-0.1,0.9-0.1,1.5c-0.2-0.7-0.7,0.3-1.2,0.1c0.2,0.1,0.2,0.4,0.1,0.5l0.8-0.6c0,0.5,0.2,0.4,0.4,0.6
						c-0.1-1,0.6-0.7,1-0.9c0,0.3-0.1,0.7-0.5,0.6c0.4,0.8,0.6-1.2,1-0.5c-0.1,0-0.2,0-0.2,0.1c0.2-0.3,0.8,0,0.7,0.2l-0.1,0
						c0.7,0.1,2,0.1,2.2-0.8c0,0.1-0.1,1-0.2,1.2l1.3-2.8c-0.1,0.7,0.2,2.5-0.3,2.9c0.2,0.1,0.4,0.2,0.7,0c-0.1-0.1-0.2-1.1-0.1-1.1
						c0.4,0.8,0.3,0.4,0.8,1.1c-0.2-0.2,0.1-1.3,0.3-1.3c0,0.2,0,1.1-0.1,1.2l0.7-1.1c-0.2,0.2-0.1,1,0.1,1.3
						c-0.1-0.2,0.6,0,0.7-0.1l-0.3-0.3c0.7,0.2,0.8-1.6,1.5-1.5c-0.1,0.2-0.3,1.4,0.1,1.6c0.2-0.6,0.8-2.8,1.5-3.2l0.1,0.3l0.5-0.4
						c-0.3,0.9-1.2,2.7-1.7,3.4c0.3,0.3,0.1,0.4,0.5,0.4c0.1,0.3-0.2,0.5-0.4,0.5l0.9,0.2c0-0.7,0.7-0.7,0.7-1.2l-1,0.7
						c0-0.7,0.6-1.9,1.3-1.8c0.2,0.3-0.2,1.2-0.1,1.4c0.1-0.2,0.6-0.4,0.7-0.3l-0.3,0.4c0.4,0.3,0.6-0.9,1.1-0.2
						c0.2,0,0.4,0.9,0.5,0.5c-0.2-0.8-0.2-3.1,0-3.7c0.1,0.1,0.8,0.8,1,1.1c0.2,0.6-0.4,1.4-0.2,1.9c0-0.2,0.2-0.4,0.2-0.5
						c0.2,0.2-0.1,0.6,0.3,0.5c0.1-0.7,0.7,0.1,0.2-0.6c0.3-0.2,0.4,0.1,0.8,0.1c-0.1-0.4,0.4-1.5,0.8-1.7c0,0.2,0,0.4,0.1,0.5
						c0.7,0.1,1.1,0.4,1.7,0.4c0.1,0.2,0.4,0.4,0.2,0.7c0.1-0.1,0.2-0.3,0.4-0.4c0.4,0.6-0.5,0.1-0.2,0.8c0-0.4,0.5-0.5,0.8-0.8
						c-0.1-0.6-0.7-0.1-1,0.1c0-0.8,0.5-1.7,1.2-2.1c0.6-0.2,0.2,0.6,0.3,0.4c1,0.2,0.9-1.5,1.8-0.8c0.3,0.5,0,1.1,0.1,1.5
						c-0.5,0.2-0.7-0.4-1-0.3l0.4,0.3c-0.1,0.2-0.4,0.3-0.6,0.1c0.3,0.5,1.7,0.1,2.5,0.6c0.1-0.2,0.4-0.4,0.3-0.6l-0.3,0.1
						c-0.2-0.4,0.5-0.6,0.2-0.8c0.3-0.3,0.7-0.8,1.2-0.5l0.1,0.6c0-0.2-0.3-0.4-0.4-0.2c0.2-0.3,0.7,0.8,0.9,0.1l-0.3-0.4
						c0.3-0.3,0.8-0.9,1.2-0.7c-0.2-0.6-0.1,0.1-0.4-0.6c0.2,0.9-1.1-0.1-0.7,0.9c-0.3-0.8-0.5-0.4-0.9-1.1c0,0.2,0.1,0.4-0.2,0.3
						c0,0.1-0.1,0.1-0.1,0.2c0,0,0,0,0,0c0,0,0,0,0,0c0,0,0,0,0,0c0.1,0.1,0.1,0.2,0.2,0.3c-0.2,0.5-0.7,0.4-0.9,0.7
						c-0.2-0.1,0.1-0.2,0-0.4l-0.3,0.4c0-0.4-0.5-0.8,0-1l-0.4,0c-0.3-0.3-0.6-0.4-0.8-0.2c-0.2-0.1-0.5,0.5-0.4,0.1l-0.7,0.3l0-0.1
						c-0.7-0.1-1.4,0.7-2.2-0.1c-0.2,0.1-0.5,0.2-0.9,0.1l-0.1-0.4c-0.3,0.1-0.9-0.4-1,0c-0.3-1.1-1.4-0.3-2-0.5l0,0.5
						c-0.4,0-0.7,0.1-1.2,0.3l0,0.4c-0.4,0.4-1-0.3-1.6-0.3c0-0.2,0.2-0.1,0.3,0c-0.7-1-1.6,0.7-2.2-0.1c-0.2,0.2-0.3,0.1-0.4,0
						c0,0,0,0,0,0c0,0,0,0-0.1,0c-0.1-0.1-0.1-0.2-0.2-0.2c0.1,0.1,0.1,0.2,0.2,0.2c-0.1,0-0.3,0.1-0.5,0.2l-0.1-0.5c0,0,0,0,0,0
						c-0.2-0.2-0.2,0.2-0.1,0.6c-0.1,0.1-0.2,0.2-0.3,0.3c-0.1-0.8-0.5,0.2-0.7-0.6c-0.1,0.4-1,0.3-1.1,1.1c0-0.1-0.1-0.2,0-0.2
						c-0.2-0.1-0.4-0.2-0.6,0l-0.1-0.6l-0.5,0.8c-0.3-0.4-0.4-0.6-0.1-1.1c-0.7,0.7-0.5,0.3-1.1,1l0-0.4c-0.2,0-0.5,0.5-0.7,0.2
						c-0.4-0.8-2.2-0.2-3.4-0.9c0.2,1.2-0.5-0.5-0.6,0.4c-0.1-0.3-0.2-0.4,0-0.7c-0.6,0.3-0.9-0.5-1.3,0.3c-0.1-0.3,0.1-0.4,0.1-0.6
						c0,0.1-0.2,0.2-0.3,0.1c-0.1-0.2,0.1-0.2,0.2-0.3c-0.6,0-0.7,0.9-0.8,1.7c-0.3-0.4-0.5-0.3-0.7,0.2c-0.1-0.3-0.3-0.5,0.1-0.6
						c-0.2,0-1.3-0.4-1.3,0.2c-0.1-0.2-0.3-0.1-0.4,0c-0.5-0.1-0.5-0.1-1-0.1l0.1,0.1c-0.2,0.8-0.4,0.2-0.8,0.2l0-0.1
						c-0.9-0.6-0.4,0.3-1.2-0.4l0,0.5c-0.1,1-0.7-0.6-1.2-0.2l0.2,0.3c-0.3,0.3-0.7-1.4-1-1.6c-0.1-0.1,0.1-0.1,0.2-0.2
						c-0.7-0.6-0.1,0.6-0.6,0.8c-0.1-0.3,0.1-0.9-0.2-0.9c-0.2-0.3-1.1,1.1-1.5,0.4c0.1,0.3,0.2,0.5-0.1,0.7c-0.4,0.1-1-1-1.4-0.2
						c0-0.1-0.1-0.1-0.1-0.2c-0.3,0.2-0.9,0.3-1.1,0.8c-0.2-1.7-1.8,0.8-1.8-0.8l-0.9,0.1l0-0.2c-0.6-0.1-0.8,0.2-1,0.6
						c-0.1-0.1,0-0.2,0-0.3c-0.8-0.3-0.9-0.3-1.6,0.5l-0.1-0.5c-0.2,0.3-1.2-0.8-2-0.3c0-0.1,0-0.2,0.1-0.2
						c-0.9,0.6-2.2-1.4-2.5,0.4l-0.6,0.4c0.8,0.2-0.1,0.8,0.2,1.1c-0.3,0.1-0.8-0.6-0.4-0.6l0.1,0.1c0.2-0.9-1-0.4-0.9-1
						c-1.5,0-3-0.6-4.5-0.6l0.1,0.7l-0.5-0.1c-0.1-0.2-0.2-0.6,0.2-0.5c-0.2-0.4-0.6,0.3-0.6,0.5c-0.7-0.3,0.3-0.8,0.1-0.9l-0.3,0
						l0.1,0.1c-0.2,0.3-0.3,0.6-0.7,0.6c-0.3-0.2-0.1-0.5-0.2-0.5c0-0.1,0-0.1-0.2,0l-0.6-0.1l0.2,0.6c-0.3,0.3-0.6,0-0.3,0.6
						c-0.4-1-2.3-0.4-2.6-0.7c-0.4,0.4-0.8,0.4-1.3,0.3c0.1,0.1,0.2,0.8-0.2,0.7c0.2-1.3-0.7-0.6-1.1-1.6c0.3,0.6-1.2,0.1-0.7,1
						c-0.3-0.1,0-0.5-0.3-0.8c-0.8,0.5-1.8-0.4-2.8-0.2c0,0.2,0.1,0.4-0.1,0.7l-0.5-0.9c-0.2,0.1-0.2,1-0.6,0.4c0,0.1,0.1,0.4,0,0.4
						c-2-0.9-4.1,0.6-6.1-1.1c0.3,0.3,0.1,0.4-0.1,0.4c0.1,0.1,0,0.4,0,0.7l-0.8-0.7c-0.2,0.7-0.9,0-1,0.7l0.3-0.1
						c-0.4,0.7,0.5,1.7,0.4,2.6c0.4-0.8,1,1.3,1.7,0.1c0.1,0.2-0.1,0.3-0.1,0.5c0.2-0.4,0.4-0.5,0.7-0.3l0,0.1
						c1-0.1,1.5,0.3,2.6,0.6l-0.1-0.5c0.3,0.1,0.3,0.2,0.4,0.3c0.3-0.7-0.7-0.1-0.4-0.8c0.3,1,1.8,0.1,2,1.2c0.4,0-0.1-0.6,0.3-0.5
						l0.1,0.3l0.1-0.4c0.3,0.1,0.4,0.4,0.4,0.7c-0.1,0-0.2,0.1-0.2,0.1c0.3,0.4,0.9-0.1,1,0l-0.4-0.2c1.1-0.3,2.3,0.2,3.4-0.4
						l-0.1-0.2c0.8-0.4,0.6,0.3,1.5,0.1l0,0.1c0.2-0.2,0.4-0.3,0.6-0.3c-0.2,0.3,0.4,0.5,0.1,0.8c0.9-0.4,0.4-0.3,1-1.2l0.1,0.4
						c0.2-0.3,0.2-0.5,0.6-0.6c-0.4,0.3,0.3,0.6-0.1,1c0.9,0.8,1.4-0.8,1.7,0.4c0.4-1-0.8-0.6-0.5-0.8c-0.2-0.3,0.4-0.8,0.6-0.6
						c0.3,0,0.5,1.3,1.2,1.3c-0.1,0-0.1,0.1-0.2,0.1c0.3,0.3,0.5-0.3,0.9,0.1c0.2-0.6,0.4,0,0.5-0.7l-0.7,0.2
						c0.4-0.2,0.8-1.1,1.4-0.6c-0.1,0.2-0.2,0.4-0.4,0.5c0.2,0.2,0.4-0.1,0.5,0.1c-0.1,0.8-0.8,0.2-1.2,0.7c0.2,0.3,0.8-0.6,0.6,0.3
						c0.3-1.1,0.7,0.2,1.2-0.7l0,0.5c0.1-0.1,0.2-0.3,0.4-0.3l-0.3,0.6c0.4-0.5,0.8,0.5,1.1,0.2c-0.8,0-0.2-0.6-0.5-0.9
						c1-0.6,0.5,1.3,1.6,1.1c-0.2,0.1-0.6-0.3-0.3-0.5c0.2,0.1,0.5,0.3,0.6,0.5c0.7-0.1-0.1-0.5,0.2-0.8c0.2,0.6,0.4-0.2,0.7-0.4
						l0,0.5c0.8,0.3,0.2-1,1-0.6l-0.3,0.7l0.4-0.2l-0.1,0.5c0.4-0.4,0.6-0.3,1-0.1c-0.1-0.3,0.1-0.9,0.4-0.9
						c0.2,0.3-0.2,0.5,0.4,0.4c-0.1,0.3-0.3,0.7-0.5,0.2c0,0.2-0.1,0.3-0.2,0.5c0.3,0.3,0.7,0.1,0.9,0.1c-0.1,0-0.2,0-0.2-0.1
						l0.8-0.6c0.1,0.2,0,0.3-0.1,0.5c0.2,0,0.3-0.3,0.5-0.3c-0.1,0.4-0.1,0.8-0.4,1l0.7-0.4c0,0.2,0.4,0.5,0.3,0.6
						c0.4,0.2,1-0.7,1.5-0.4c0-0.1,0.1-0.1,0.2-0.2c0.5,0.1,0.9,0.6,1.5,0.1l0.3,0.7c0.5-0.1-0.4-0.9,0.3-1.1
						c0.5-0.2,0.2,0.6,0.4,0.8c0.3-0.3,0.8-1.1,1.3-0.5C288.2,94.1,288.1,94,287.9,94z M293.6,93.9c-0.1,0.1-0.3,0.4-0.4,0.1
						C293.3,93.4,293.4,93.7,293.6,93.9z M302.3,92.9c-0.1,0.2-0.2,0.1-0.3-0.1C302,92.8,302.1,92.8,302.3,92.9z M326.4,90.2
						C326.4,90.2,326.4,90.2,326.4,90.2C326.1,90,326.2,90.1,326.4,90.2z M326.9,90.4c0.1-0.1,0.1-0.1,0-0.2c0,0.1-0.2,0.1-0.3,0.1
						C326.7,90.4,326.7,90.5,326.9,90.4z M272.1,89.2l0.1,0.1C272,89.5,272.1,89.3,272.1,89.2z"/>
					<path d="M301.3,93.6c0-0.1,0-0.2,0-0.3C301.2,93.4,301.2,93.5,301.3,93.6z"/>
					<path d="M284.4,94.2C284.4,94.2,284.3,94.2,284.4,94.2C284.3,94.2,284.3,94.2,284.4,94.2L284.4,94.2z"/>
					<path d="M318.9,94.3c-0.1-0.1-0.2-0.2-0.2-0.3C318.7,94.1,318.7,94.2,318.9,94.3z"/>
					<path d="M329.6,89.6l-0.3,0.1c0.2,0,0.2,0.1,0.3,0.2C329.6,89.8,329.5,89.6,329.6,89.6z"/>
					<path d="M332.4,92.7c0-0.1,0.1,0,0.1-0.1l0-0.2C332.3,92.4,332.2,92.6,332.4,92.7z"/>
					<path d="M329.9,91.3c0,0.4,0.2,0.3,0.5,0.2c0,0,0,0,0,0C330.4,90.9,330.1,91.1,329.9,91.3z"/>
					<path d="M330.4,91.4c0.1,0,0.1,0,0.2,0C330.6,91.2,330.5,91.4,330.4,91.4z"/>
					<path d="M327.6,90.1c0.1,0.1,0.1-0.5,0.1-0.4C327.8,89.3,327,90.4,327.6,90.1z"/>
					<polygon points="330,92.6 330,92.1 329.8,92.5 					"/>
					<path d="M328.2,92.2l0.4,0.1c0-0.1,0-0.1,0.1-0.2C328.5,92.1,328.2,92,328.2,92.2z"/>
					<path d="M328.7,92.2c0.1,0,0.2,0,0.3-0.1C328.9,92.1,328.8,92.1,328.7,92.2z"/>
					<polygon points="329.5,92.7 329.4,92.6 329.2,92.6 					"/>
					<path d="M324.3,92l-0.4,0.1c0,0.2,0.1,0.3,0.2,0.2C324.2,92.2,324.4,92.1,324.3,92z"/>
					<path d="M325.5,93.4c-0.1-0.1-0.1-0.2-0.2-0.4l0,0.6L325.5,93.4z"/>
					<path d="M324.3,93.5c0,0.2-0.6,0.5-0.1,0.5C324.3,93.8,324.7,93.7,324.3,93.5z"/>
					<polygon points="318.3,92.6 318.4,92.6 318.4,91.5 					"/>
					<path d="M313,94.9c0.5,0.3,0.1-0.6,0.5-0.3c0.1-0.2-0.3-0.3-0.2-0.5C313,94.3,312.8,94.2,313,94.9z"/>
					<path d="M313.3,94.1c0,0,0.1-0.1,0.1-0.2C313.4,94,313.3,94,313.3,94.1z"/>
					<polygon points="253.6,88.2 253.3,88 253.5,88.3 					"/>
					<path d="M253,88.9l-0.1-0.7l-0.2,0.6C252.8,88.9,252.9,88.8,253,88.9z"/>
					<path d="M294.4,95.2l0-0.2c0-0.2-0.1-0.2-0.3-0.2L294.4,95.2z"/>
					<polygon points="290.3,94.6 290.4,94.6 290.2,94 					"/>
					<path d="M286.8,95.3c0.1,0,0.3-0.1,0.5-0.1C286.9,95.3,286.8,94.5,286.8,95.3z"/>
				</g>
			</g>
		</g>
	</g>
</g>
</svg>
